<svg xmlns="http://www.w3.org/2000/svg" width="10" height="10" viewBox="0 0 10 10"><defs><style>.a{fill:#fff;}</style></defs><path class="a" d="M7.293,0H2.707A2.71,2.71,0,0,0,0,2.707V7.293A2.71,2.71,0,0,0,2.707,10H7.293A2.71,2.71,0,0,0,10,7.293V2.707A2.71,2.71,0,0,0,7.293,0ZM5,7.734A2.734,2.734,0,1,1,7.734,5,2.737,2.737,0,0,1,5,7.734ZM7.8,2.911A.808.808,0,1,1,8.608,2.1.809.809,0,0,1,7.8,2.911Zm0,0"/><path class="a" d="M148.168,146.02a2.148,2.148,0,1,0,2.148,2.148A2.151,2.151,0,0,0,148.168,146.02Zm0,0" transform="translate(-143.168 -143.168)"/><path class="a" d="M388.214,96.3a.222.222,0,1,0,.222.222A.222.222,0,0,0,388.214,96.3Zm0,0" transform="translate(-380.414 -94.42)"/></svg>