<svg xmlns="http://www.w3.org/2000/svg" width="28.139" height="18" viewBox="0 0 28.139 18"><defs><style>.a{fill:#fff;}</style></defs><path class="a" d="M206.131,153.753l.4-.434a.879.879,0,0,1,1.287,0l.4.434a9.552,9.552,0,0,0,1.123,1.027.412.412,0,0,0,.506-.651,8.711,8.711,0,0,1-1.026-.938l-.4-.434a1.7,1.7,0,0,0-2.495,0l-.4.434a8.717,8.717,0,0,1-1.026.938.412.412,0,0,0,.506.651,9.551,9.551,0,0,0,1.123-1.027Z" transform="translate(-193.109 -148.915)"/><path class="a" d="M125.48,234.6h-1.529a2.1,2.1,0,0,0-2.095,2.095v1.562a2.1,2.1,0,0,0,2.095,2.095h1.529a2.1,2.1,0,0,0,2.095-2.095v-1.562A2.1,2.1,0,0,0,125.48,234.6Zm1.27,3.657a1.271,1.271,0,0,1-1.27,1.27h-1.529a1.271,1.271,0,0,1-1.27-1.27v-1.562a1.271,1.271,0,0,1,1.27-1.27h1.529a1.271,1.271,0,0,1,1.27,1.27Z" transform="translate(-115.157 -226.77)"/><path class="a" d="M150.539,263.634h-2.006a.412.412,0,1,0,0,.825h2.006a.412.412,0,1,0,0-.825Z" transform="translate(-139.978 -254.21)"/><path class="a" d="M150.539,295.185h-2.006a.412.412,0,1,0,0,.825h2.006a.412.412,0,1,0,0-.825Z" transform="translate(-139.978 -284.027)"/><path class="a" d="M290.6,234.6h-1.529a2.1,2.1,0,0,0-2.095,2.095v1.562a2.1,2.1,0,0,0,2.095,2.095H290.6a2.1,2.1,0,0,0,2.095-2.095v-1.562A2.1,2.1,0,0,0,290.6,234.6Zm1.27,3.657a1.271,1.271,0,0,1-1.27,1.27h-1.529a1.271,1.271,0,0,1-1.27-1.27v-1.562a1.271,1.271,0,0,1,1.27-1.27H290.6a1.271,1.271,0,0,1,1.27,1.27Z" transform="translate(-271.204 -226.77)"/><path class="a" d="M315.663,263.634h-2.006a.412.412,0,1,0,0,.825h2.006a.412.412,0,1,0,0-.825Z" transform="translate(-296.025 -254.21)"/><path class="a" d="M315.663,295.185h-2.006a.412.412,0,1,0,0,.825h2.006a.412.412,0,1,0,0-.825Z" transform="translate(-296.025 -284.027)"/><path class="a" d="M23.669,96.6H23.54a.781.781,0,0,0-.522-.357l-1.86-.343a5.523,5.523,0,0,1-3.022-1.658l-.4-.434a5,5,0,0,0-7.324,0l-.4.434A5.523,5.523,0,0,1,6.981,95.9l-1.86.343A.781.781,0,0,0,4.6,96.6H4.47a4.47,4.47,0,1,0,0,8.94h.509a7.341,7.341,0,0,0,6.832,4.674h4.518a7.309,7.309,0,0,0,4.951-1.925.412.412,0,0,0-.557-.608,6.487,6.487,0,0,1-4.394,1.708H11.811a6.512,6.512,0,0,1-6.5-6.5v-.547a.412.412,0,1,0-.825,0v.547a7.318,7.318,0,0,0,.231,1.83H4.47a3.645,3.645,0,1,1,0-7.291h.011v3.156a.412.412,0,1,0,.825,0V98.733l2.124-.4a8.013,8.013,0,0,0,4.385-2.406l.4-.434a2.528,2.528,0,0,1,3.7,0l.4.434A8.045,8.045,0,0,0,18.973,97.8a.412.412,0,0,0,.33-.756,7.215,7.215,0,0,1-2.376-1.678l-.4-.434a3.353,3.353,0,0,0-4.909,0l-.4.434a7.185,7.185,0,0,1-3.933,2.157l-1.973.372v-.847l1.825-.336A6.353,6.353,0,0,0,10.608,94.8l.4-.434a4.178,4.178,0,0,1,6.116,0l.4.434a6.353,6.353,0,0,0,3.477,1.907l1.825.336v.9l-1.923-.419a.412.412,0,0,0-.176.806l2.1.457v4.088a6.48,6.48,0,0,1-1.04,3.53.412.412,0,1,0,.692.448,7.3,7.3,0,0,0,.676-1.323h.508a4.47,4.47,0,1,0,0-8.94Zm0,8.115h-.242a7.344,7.344,0,0,0,.231-1.83v-5.46h.011a3.645,3.645,0,1,1,0,7.291Z" transform="translate(0 -92.213)"/></svg>