<svg xmlns="http://www.w3.org/2000/svg" width="17.826" height="18" viewBox="0 0 17.826 18"><defs><style>.a{fill:#747474;}</style></defs><path class="a" d="M17.4,3.415a1.749,1.749,0,0,0-1.339-.591H3.249L3.12,1.857A1.956,1.956,0,0,0,1.469,0H.527a.527.527,0,0,0,0,1.055h.941c.169,0,.527.358.605.942l1.51,11.322a2.132,2.132,0,0,0,.722,1.316,2.179,2.179,0,0,0,1.012.5,1.94,1.94,0,1,0,3.43.038h2.763a1.939,1.939,0,1,0,3.45,0h1.382a.527.527,0,0,0,0-1.055H5.705a1.132,1.132,0,0,1-1.076-.942l-.11-.827H14.931a2.189,2.189,0,0,0,2.121-1.857l.756-5.673A1.749,1.749,0,0,0,17.4,3.415ZM7.908,16.061a.885.885,0,1,1-.885-.885A.886.886,0,0,1,7.908,16.061Zm6.213,0a.885.885,0,1,1-.885-.885A.886.886,0,0,1,14.121,16.061ZM16.606,4.11a.709.709,0,0,1,.157.571l-.317,2.379H12.858l.212-3.182h2.99A.709.709,0,0,1,16.606,4.11ZM9.117,11.3,8.905,8.115h2.826L11.518,11.3ZM8.835,7.061,8.623,3.879h3.39L11.8,7.061ZM7.566,3.879l.212,3.182H3.813L3.389,3.879ZM3.954,8.115H7.848L8.06,11.3H4.378ZM14.931,11.3H12.576l.212-3.182h3.518l-.3,2.24A1.132,1.132,0,0,1,14.931,11.3Zm0,0"/></svg>