<svg xmlns="http://www.w3.org/2000/svg" width="1400" height="80.461" viewBox="0 0 1400 80.461"><defs><style>.a,.h{fill:#fff;}.b,.e{fill:#cc1236;}.b,.d{font-size:14px;}.b,.h{font-family:Gotham-Medium, Gotham;font-weight:500;}.c,.d{fill:#747474;}.d{font-family:Gotham-Book, Gotham;}.f{fill:#3c3c3b;}.g{fill:#bd0027;}.h{font-size:12px;}</style></defs><path class="a" d="M0,0H1400V80H0Z"/><text class="b" transform="translate(1182 44)"><tspan x="-696.136" y="0">Overview</tspan><tspan class="c" y="0" xml:space="preserve">       Features       Protection       Technology       Certifications       Bulk Orders       Contact</tspan></text><text class="d" transform="translate(1367 43)"><tspan x="-29.764" y="0">Cart</tspan></text><path class="c" d="M17.4,3.415a1.749,1.749,0,0,0-1.339-.591H3.249L3.12,1.857A1.956,1.956,0,0,0,1.469,0H.527a.527.527,0,0,0,0,1.055h.941c.169,0,.527.358.605.942l1.51,11.322a2.132,2.132,0,0,0,.722,1.316,2.179,2.179,0,0,0,1.012.5,1.94,1.94,0,1,0,3.43.038h2.763a1.939,1.939,0,1,0,3.45,0h1.382a.527.527,0,0,0,0-1.055H5.705a1.132,1.132,0,0,1-1.076-.942l-.11-.827H14.931a2.189,2.189,0,0,0,2.121-1.857l.756-5.673A1.749,1.749,0,0,0,17.4,3.415ZM7.908,16.061a.885.885,0,1,1-.885-.885A.886.886,0,0,1,7.908,16.061Zm6.213,0a.885.885,0,1,1-.885-.885A.886.886,0,0,1,14.121,16.061ZM16.606,4.11a.709.709,0,0,1,.157.571l-.317,2.379H12.858l.212-3.182h2.99A.709.709,0,0,1,16.606,4.11ZM9.117,11.3,8.905,8.115h2.826L11.518,11.3ZM8.835,7.061,8.623,3.879h3.39L11.8,7.061ZM7.566,3.879l.212,3.182H3.813L3.389,3.879ZM3.954,8.115H7.848L8.06,11.3H4.378ZM14.931,11.3H12.576l.212-3.182h3.518l-.3,2.24A1.132,1.132,0,0,1,14.931,11.3Zm0,0" transform="translate(1309 30)"/><g transform="translate(32.002 21)"><g transform="translate(-0.002)"><path class="e" d="M16.839,27.408,7.532,10.081A33.465,33.465,0,0,1,.74,7.64c1.642,8.671,5.785,19.916,16.1,24.7,10.313-4.779,14.456-16.025,16.1-24.7a34.4,34.4,0,0,1-6.792,2.441Z" transform="translate(0.358 3.665)"/><path class="f" d="M17.195,22.964,23.986,9.559A32.029,32.029,0,0,0,34.063,6.111,52.64,52.64,0,0,0,34.388,0,16.222,16.222,0,0,1,17.195,0,16.215,16.215,0,0,1,0,0,52.641,52.641,0,0,0,.327,6.111,32.029,32.029,0,0,0,10.4,9.559Z" transform="translate(0.002)"/></g><g transform="translate(43.385 7.576)"><path class="e" d="M40.98,8.8,36.1,20.77H34.2L29.32,8.8h1.716a.675.675,0,0,1,.429.133.756.756,0,0,1,.222.311l3.033,7.709c.089.3.178.577.252.858s.133.547.207.829c.059-.281.133-.547.207-.829s.163-.562.266-.858l3.078-7.709a.629.629,0,0,1,.237-.311.569.569,0,0,1,.385-.118H40.98Z" transform="translate(-29.32 -3.355)"/><path class="e" d="M41.688,6.754a1.489,1.489,0,0,1-.118.577,1.794,1.794,0,0,1-.326.473,1.413,1.413,0,0,1-.488.326,1.624,1.624,0,0,1-.592.118A1.464,1.464,0,0,1,39.114,7.8a1.794,1.794,0,0,1-.326-.473,1.489,1.489,0,0,1-.118-.577,1.624,1.624,0,0,1,.118-.592,1.486,1.486,0,0,1,.326-.488,1.464,1.464,0,0,1,1.051-.444,1.624,1.624,0,0,1,.592.118,1.761,1.761,0,0,1,.488.326,1.413,1.413,0,0,1,.326.488A1.624,1.624,0,0,1,41.688,6.754Zm-.444,3.758v11.97h-2.1V10.512Z" transform="translate(-24.835 -5.067)"/><path class="e" d="M45.138,11.269a5.568,5.568,0,0,1,1.391-1.924,3.064,3.064,0,0,1,2.027-.7,2.949,2.949,0,0,1,.725.089,1.973,1.973,0,0,1,.621.266l-.148,1.568a.339.339,0,0,1-.355.3,3,3,0,0,1-.488-.074,3.528,3.528,0,0,0-.725-.074,2.988,2.988,0,0,0-1.006.163,2.473,2.473,0,0,0-.8.488,3.113,3.113,0,0,0-.621.8,7.566,7.566,0,0,0-.5,1.095v7.561H43.14V8.872h1.2a.671.671,0,0,1,.473.133.775.775,0,0,1,.178.444Z" transform="translate(-22.691 -3.427)"/><path class="e" d="M54.3,8.67a6.081,6.081,0,0,1,2.367.444,5.123,5.123,0,0,1,1.79,1.243A5.379,5.379,0,0,1,59.593,12.3a7.654,7.654,0,0,1,.4,2.545,7.744,7.744,0,0,1-.4,2.56,5.6,5.6,0,0,1-1.139,1.938,5.028,5.028,0,0,1-1.79,1.228A6.308,6.308,0,0,1,54.3,21a6.386,6.386,0,0,1-2.382-.429,4.957,4.957,0,0,1-1.805-1.228A5.379,5.379,0,0,1,48.97,17.4a7.682,7.682,0,0,1-.4-2.56,7.654,7.654,0,0,1,.4-2.545,5.6,5.6,0,0,1,1.139-1.938,5.182,5.182,0,0,1,1.805-1.243A6.052,6.052,0,0,1,54.3,8.67Zm0,10.683a3.083,3.083,0,0,0,2.649-1.184,5.55,5.55,0,0,0,.873-3.314,5.6,5.6,0,0,0-.873-3.329,3.055,3.055,0,0,0-2.649-1.2,3.662,3.662,0,0,0-1.568.311,2.957,2.957,0,0,0-1.11.888,3.95,3.95,0,0,0-.666,1.42,7.514,7.514,0,0,0-.222,1.909,5.416,5.416,0,0,0,.888,3.314A3.084,3.084,0,0,0,54.3,19.353Z" transform="translate(-20.087 -3.417)"/><path class="f" d="M58.49,20.828V8.858h1.258a.532.532,0,0,1,.562.444l.148,1.228A5.764,5.764,0,0,1,61.952,9.2a3.545,3.545,0,0,1,1.909-.518,2.782,2.782,0,0,1,1.953.681,3.729,3.729,0,0,1,1.08,1.82,4.186,4.186,0,0,1,.666-1.125,3.852,3.852,0,0,1,.917-.784,3.621,3.621,0,0,1,1.08-.444,5.162,5.162,0,0,1,1.169-.148,4.576,4.576,0,0,1,1.687.3,3.3,3.3,0,0,1,1.258.888,3.882,3.882,0,0,1,.784,1.42,6.462,6.462,0,0,1,.266,1.938v7.62H72.606v-7.62a3.211,3.211,0,0,0-.621-2.131,2.2,2.2,0,0,0-1.776-.725,2.8,2.8,0,0,0-.991.178,2.343,2.343,0,0,0-.829.533,2.466,2.466,0,0,0-.562.888,3.527,3.527,0,0,0-.207,1.243v7.62H65.5v-7.62a3.346,3.346,0,0,0-.577-2.145,2.046,2.046,0,0,0-1.687-.71,2.579,2.579,0,0,0-1.435.414,4.868,4.868,0,0,0-1.213,1.139v8.922h-2.1Z" transform="translate(-15.328 -3.412)"/><path class="f" d="M72.007,10.559a7.087,7.087,0,0,1,2.145-1.435A6.72,6.72,0,0,1,76.7,8.65a4.6,4.6,0,0,1,1.79.326,3.83,3.83,0,0,1,1.317.917,3.88,3.88,0,0,1,.8,1.435,6.071,6.071,0,0,1,.266,1.85v7.665h-.932a.865.865,0,0,1-.473-.1.783.783,0,0,1-.266-.4L78.961,19.2a10.123,10.123,0,0,1-.917.769,5.15,5.15,0,0,1-.947.562,5.845,5.845,0,0,1-1.051.355,5.374,5.374,0,0,1-1.243.118,4.3,4.3,0,0,1-1.317-.192,2.878,2.878,0,0,1-1.065-.592,2.736,2.736,0,0,1-.725-.991,3.453,3.453,0,0,1-.266-1.406,2.672,2.672,0,0,1,.385-1.361,3.458,3.458,0,0,1,1.258-1.169,7.933,7.933,0,0,1,2.279-.829A16.822,16.822,0,0,1,78.8,14.1v-.932a3.249,3.249,0,0,0-.607-2.116,2.181,2.181,0,0,0-1.761-.71,3.663,3.663,0,0,0-1.3.192,5.3,5.3,0,0,0-.917.444q-.377.244-.666.444a.947.947,0,0,1-.547.192.614.614,0,0,1-.37-.118.97.97,0,0,1-.266-.281Zm6.792,4.9a15.55,15.55,0,0,0-2.471.237,7.165,7.165,0,0,0-1.672.473,2.263,2.263,0,0,0-.932.7,1.5,1.5,0,0,0-.3.9,1.951,1.951,0,0,0,.148.814,1.591,1.591,0,0,0,.414.562,1.781,1.781,0,0,0,.621.326,2.614,2.614,0,0,0,.769.1,4.394,4.394,0,0,0,1.021-.118,3.647,3.647,0,0,0,.873-.326,6.388,6.388,0,0,0,.784-.5,5.153,5.153,0,0,0,.725-.681V15.456Z" transform="translate(-9.122 -3.427)"/><path class="f" d="M87.622,10.835a.459.459,0,0,1-.444.266.8.8,0,0,1-.4-.133c-.148-.089-.34-.178-.547-.3a3.8,3.8,0,0,0-.769-.3,3.737,3.737,0,0,0-1.065-.133,3.215,3.215,0,0,0-.962.133,2.385,2.385,0,0,0-.725.37,1.594,1.594,0,0,0-.459.547,1.49,1.49,0,0,0-.163.681,1.132,1.132,0,0,0,.266.769,2.236,2.236,0,0,0,.71.533,6.91,6.91,0,0,0,.991.4c.37.118.755.237,1.139.37s.769.281,1.139.429a4.4,4.4,0,0,1,.991.592,2.715,2.715,0,0,1,.71.873,2.639,2.639,0,0,1,.266,1.228,3.941,3.941,0,0,1-.3,1.524,3.228,3.228,0,0,1-.873,1.213,4.414,4.414,0,0,1-1.42.814,5.561,5.561,0,0,1-1.938.3,5.823,5.823,0,0,1-2.264-.414A5.583,5.583,0,0,1,79.78,19.55l.5-.8a.685.685,0,0,1,.222-.237.563.563,0,0,1,.326-.089.782.782,0,0,1,.444.163c.163.1.355.237.577.37a4.909,4.909,0,0,0,.829.37,3.976,3.976,0,0,0,1.2.163,3.385,3.385,0,0,0,1.08-.163,2.265,2.265,0,0,0,.769-.429,1.7,1.7,0,0,0,.459-.621,1.856,1.856,0,0,0,.148-.755,1.294,1.294,0,0,0-.266-.829,2.3,2.3,0,0,0-.71-.562,6.477,6.477,0,0,0-1.006-.4c-.37-.118-.755-.237-1.139-.355s-.769-.266-1.139-.429a4.548,4.548,0,0,1-1.006-.607,2.676,2.676,0,0,1-.71-.9,2.919,2.919,0,0,1-.266-1.3,3.1,3.1,0,0,1,.281-1.317,3.168,3.168,0,0,1,.829-1.11,4.2,4.2,0,0,1,1.332-.769,5.256,5.256,0,0,1,1.805-.281,5.619,5.619,0,0,1,2.116.37,5.237,5.237,0,0,1,1.628,1.021Z" transform="translate(-5.117 -3.422)"/><path class="f" d="M89.8,5.12V15.374h.547a1.034,1.034,0,0,0,.4-.059,1.022,1.022,0,0,0,.34-.266l3.788-4.054a1.17,1.17,0,0,1,.355-.311.915.915,0,0,1,.488-.118h1.909l-4.409,4.691a2.652,2.652,0,0,1-.681.621,2.037,2.037,0,0,1,.385.326,3.1,3.1,0,0,1,.326.414l4.676,5.9H96.04a1.175,1.175,0,0,1-.473-.089.789.789,0,0,1-.34-.326L91.29,17.194a1.016,1.016,0,0,0-.355-.326,1.573,1.573,0,0,0-.533-.074H89.8v5.726H87.68V5.12Z" transform="translate(-1.327 -5.12)"/><path class="f" d="M103.452,10.835a.459.459,0,0,1-.444.266.8.8,0,0,1-.4-.133c-.148-.089-.34-.178-.547-.3a3.8,3.8,0,0,0-.769-.3,3.737,3.737,0,0,0-1.065-.133,3.215,3.215,0,0,0-.962.133,2.385,2.385,0,0,0-.725.37,1.594,1.594,0,0,0-.459.547,1.49,1.49,0,0,0-.163.681,1.132,1.132,0,0,0,.266.769,2.236,2.236,0,0,0,.71.533,6.91,6.91,0,0,0,.991.4c.37.118.755.237,1.139.37s.769.281,1.139.429a4.4,4.4,0,0,1,.991.592,2.715,2.715,0,0,1,.71.873,2.639,2.639,0,0,1,.266,1.228,3.941,3.941,0,0,1-.3,1.524,3.228,3.228,0,0,1-.873,1.213,4.415,4.415,0,0,1-1.42.814,5.561,5.561,0,0,1-1.938.3,5.823,5.823,0,0,1-2.264-.414A5.583,5.583,0,0,1,95.61,19.55l.5-.8a.685.685,0,0,1,.222-.237.563.563,0,0,1,.326-.089.782.782,0,0,1,.444.163c.163.1.355.237.577.37a4.909,4.909,0,0,0,.829.37,3.976,3.976,0,0,0,1.2.163,3.385,3.385,0,0,0,1.08-.163,2.265,2.265,0,0,0,.769-.429,1.7,1.7,0,0,0,.459-.621,1.856,1.856,0,0,0,.148-.755,1.294,1.294,0,0,0-.266-.829,2.3,2.3,0,0,0-.71-.562,6.477,6.477,0,0,0-1.006-.4c-.37-.118-.755-.237-1.139-.355s-.769-.266-1.139-.429a4.548,4.548,0,0,1-1.006-.607,2.676,2.676,0,0,1-.71-.9,2.919,2.919,0,0,1-.266-1.3A3.1,3.1,0,0,1,96.2,10.82a3.168,3.168,0,0,1,.829-1.11,4.2,4.2,0,0,1,1.332-.769,5.255,5.255,0,0,1,1.805-.281,5.619,5.619,0,0,1,2.116.37,5.237,5.237,0,0,1,1.628,1.021Z" transform="translate(2.476 -3.422)"/></g></g><rect class="e" width="80" height="35" transform="translate(1214 23)"/><g transform="translate(208 16.61)"><rect class="g" width="43.898" height="63.851" transform="translate(0 -0.001)"/><path class="a" d="M11.094,0a2.156,2.156,0,0,1,1.5,1.619l-1.363.522q-.292-.928-1.067-.929a.788.788,0,0,0-.574.206.651.651,0,0,0-.212.481.6.6,0,0,0,.25.508,4.941,4.941,0,0,0,1.048.5,6.267,6.267,0,0,1,1.141.534,1.991,1.991,0,0,1,.671.718,2.108,2.108,0,0,1,.256,1.053,2.253,2.253,0,0,1-.723,1.724,2.731,2.731,0,0,1-1.939.674A2.5,2.5,0,0,1,7.473,5.544l1.441-.412q.264,1.134,1.2,1.133a1.049,1.049,0,0,0,.7-.223.727.727,0,0,0,.267-.586.735.735,0,0,0-.187-.492,2.207,2.207,0,0,0-.858-.459,7.923,7.923,0,0,1-1.287-.558,1.975,1.975,0,0,1-.7-.715,2.034,2.034,0,0,1-.275-1.059A2.234,2.234,0,0,1,8.427.516,2.139,2.139,0,0,1,9.3,0ZM23.533,0V7.491h-1.65V0Zm4.512,0a2.157,2.157,0,0,1,1.5,1.619L28.18,2.14q-.292-.928-1.067-.929a.787.787,0,0,0-.574.206.651.651,0,0,0-.212.481.6.6,0,0,0,.251.508,4.912,4.912,0,0,0,1.047.5,6.29,6.29,0,0,1,1.141.534,2,2,0,0,1,.671.718,2.108,2.108,0,0,1,.256,1.053,2.253,2.253,0,0,1-.723,1.724,2.733,2.733,0,0,1-1.939.674,2.5,2.5,0,0,1-2.607-2.062l1.442-.412q.264,1.134,1.2,1.133a1.051,1.051,0,0,0,.7-.223.727.727,0,0,0,.267-.586.739.739,0,0,0-.187-.492,2.22,2.22,0,0,0-.857-.459A7.88,7.88,0,0,1,25.7,3.947a1.969,1.969,0,0,1-.7-.715,2.034,2.034,0,0,1-.275-1.059A2.235,2.235,0,0,1,25.378.516,2.139,2.139,0,0,1,26.255,0ZM33.8,0a2.157,2.157,0,0,1,1.5,1.619l-1.363.522q-.294-.928-1.067-.929a.787.787,0,0,0-.574.206.648.648,0,0,0-.212.481.6.6,0,0,0,.25.508,4.93,4.93,0,0,0,1.047.5,6.245,6.245,0,0,1,1.141.534,1.993,1.993,0,0,1,.672.718,2.108,2.108,0,0,1,.256,1.053,2.256,2.256,0,0,1-.723,1.724,2.733,2.733,0,0,1-1.939.674,2.5,2.5,0,0,1-2.607-2.062l1.44-.412q.264,1.134,1.2,1.133a1.051,1.051,0,0,0,.7-.223.727.727,0,0,0,.267-.586.739.739,0,0,0-.187-.492,2.219,2.219,0,0,0-.858-.459,7.867,7.867,0,0,1-1.287-.558,1.969,1.969,0,0,1-.7-.715,2.028,2.028,0,0,1-.275-1.059A2.235,2.235,0,0,1,31.136.516,2.139,2.139,0,0,1,32.013,0ZM12.693,8.538h4.565V9.824H14.343v1.744h2.266v1.287H14.343V14.7h2.915v1.342H12.693ZM9.651,24.6H8V17.09h1.65Zm.936-8.553H8.937v-6.1h-1.5V8.538h4.68V9.945H10.587Zm5.46,8.553H14.573l-2.288-5.434V24.6H11.009V17.09h1.832l1.93,4.663V17.09h1.276Zm5.257-.558a2.731,2.731,0,0,1-1.939.674,2.5,2.5,0,0,1-2.607-2.062l1.441-.412q.264,1.134,1.2,1.133a1.049,1.049,0,0,0,.7-.223.725.725,0,0,0,.267-.586.738.738,0,0,0-.187-.492,2.209,2.209,0,0,0-.858-.459,7.9,7.9,0,0,1-1.287-.558,1.969,1.969,0,0,1-.7-.715,2.034,2.034,0,0,1-.275-1.059,2.235,2.235,0,0,1,.652-1.658,2.341,2.341,0,0,1,1.724-.646,2.262,2.262,0,0,1,2.442,1.749l-1.364.522q-.291-.929-1.066-.929a.789.789,0,0,0-.575.206.65.65,0,0,0-.212.481.6.6,0,0,0,.251.508,4.949,4.949,0,0,0,1.047.5,6.222,6.222,0,0,1,1.141.534,1.991,1.991,0,0,1,.671.718,2.1,2.1,0,0,1,.256,1.053A2.251,2.251,0,0,1,21.3,24.038Zm-.669-7.879a2.422,2.422,0,0,1-2.112-1.028A4.837,4.837,0,0,1,17.8,12.3a4.9,4.9,0,0,1,.721-2.849,2.441,2.441,0,0,1,2.139-1.028q2.348,0,2.557,2.9l-1.507.11q-.061-1.671-1.045-1.672a.92.92,0,0,0-.822.539,4.779,4.779,0,0,0-.306,2.089,4.443,4.443,0,0,0,.281,1.906.9.9,0,0,0,.841.519q.9,0,1.062-1.507l1.523.094a3.189,3.189,0,0,1-.776,1.988A2.347,2.347,0,0,1,20.635,16.16ZM24.582,24.6h-1.65V17.09h1.65Zm1.276-8.553H24.209V8.538h1.649v3.03h1.8V8.538h1.65v7.507h-1.65V12.976h-1.8Zm3.331,3.219a4.109,4.109,0,0,1,.208,1.475,5.152,5.152,0,0,1-.188,1.583,1.493,1.493,0,0,1-.5.768,1.535,1.535,0,0,1-.888.22h-.28V18.377h.28a1.669,1.669,0,0,1,.852.184A1.362,1.362,0,0,1,29.189,19.263Zm1.946,1.544a4.952,4.952,0,0,0-.434-2.26A2.379,2.379,0,0,0,29.543,17.4a4.811,4.811,0,0,0-1.878-.31H25.889V24.6h1.974a4.992,4.992,0,0,0,1.347-.154,2.137,2.137,0,0,0,.968-.6,3.292,3.292,0,0,0,.693-1.235A5.615,5.615,0,0,0,31.135,20.807Zm5.535-2.431H33.756V20.12h2.265v1.287H33.756v1.848H36.67V24.6H32.106V17.09H36.67ZM19.871,0l-.917,5.208L18.031,0H16.513l-.981,5.177L14.746,0H13.06L14.684,7.53h1.463l1.023-5.219,1,5.219H19.65L21.259,0Z" transform="translate(-2.203)"/></g><text class="h" transform="translate(1271 44)"><tspan x="-11.628" y="0">Buy</tspan></text><g transform="translate(1222 31)"><path class="a" d="M206.131,153.753l.4-.434a.879.879,0,0,1,1.287,0l.4.434a9.552,9.552,0,0,0,1.123,1.027.412.412,0,0,0,.506-.651,8.711,8.711,0,0,1-1.026-.938l-.4-.434a1.7,1.7,0,0,0-2.495,0l-.4.434a8.717,8.717,0,0,1-1.026.938.412.412,0,0,0,.506.651,9.551,9.551,0,0,0,1.123-1.027Z" transform="translate(-193.109 -148.915)"/><path class="a" d="M125.48,234.6h-1.529a2.1,2.1,0,0,0-2.095,2.095v1.562a2.1,2.1,0,0,0,2.095,2.095h1.529a2.1,2.1,0,0,0,2.095-2.095v-1.562A2.1,2.1,0,0,0,125.48,234.6Zm1.27,3.657a1.271,1.271,0,0,1-1.27,1.27h-1.529a1.271,1.271,0,0,1-1.27-1.27v-1.562a1.271,1.271,0,0,1,1.27-1.27h1.529a1.271,1.271,0,0,1,1.27,1.27Z" transform="translate(-115.157 -226.77)"/><path class="a" d="M150.539,263.634h-2.006a.412.412,0,1,0,0,.825h2.006a.412.412,0,1,0,0-.825Z" transform="translate(-139.978 -254.21)"/><path class="a" d="M150.539,295.185h-2.006a.412.412,0,1,0,0,.825h2.006a.412.412,0,1,0,0-.825Z" transform="translate(-139.978 -284.027)"/><path class="a" d="M290.6,234.6h-1.529a2.1,2.1,0,0,0-2.095,2.095v1.562a2.1,2.1,0,0,0,2.095,2.095H290.6a2.1,2.1,0,0,0,2.095-2.095v-1.562A2.1,2.1,0,0,0,290.6,234.6Zm1.27,3.657a1.271,1.271,0,0,1-1.27,1.27h-1.529a1.271,1.271,0,0,1-1.27-1.27v-1.562a1.271,1.271,0,0,1,1.27-1.27H290.6a1.271,1.271,0,0,1,1.27,1.27Z" transform="translate(-271.204 -226.77)"/><path class="a" d="M315.663,263.634h-2.006a.412.412,0,1,0,0,.825h2.006a.412.412,0,1,0,0-.825Z" transform="translate(-296.025 -254.21)"/><path class="a" d="M315.663,295.185h-2.006a.412.412,0,1,0,0,.825h2.006a.412.412,0,1,0,0-.825Z" transform="translate(-296.025 -284.027)"/><path class="a" d="M23.669,96.6H23.54a.781.781,0,0,0-.522-.357l-1.86-.343a5.523,5.523,0,0,1-3.022-1.658l-.4-.434a5,5,0,0,0-7.324,0l-.4.434A5.523,5.523,0,0,1,6.981,95.9l-1.86.343A.781.781,0,0,0,4.6,96.6H4.47a4.47,4.47,0,1,0,0,8.94h.509a7.341,7.341,0,0,0,6.832,4.674h4.518a7.309,7.309,0,0,0,4.951-1.925.412.412,0,0,0-.557-.608,6.487,6.487,0,0,1-4.394,1.708H11.811a6.512,6.512,0,0,1-6.5-6.5v-.547a.412.412,0,1,0-.825,0v.547a7.318,7.318,0,0,0,.231,1.83H4.47a3.645,3.645,0,1,1,0-7.291h.011v3.156a.412.412,0,1,0,.825,0V98.733l2.124-.4a8.013,8.013,0,0,0,4.385-2.406l.4-.434a2.528,2.528,0,0,1,3.7,0l.4.434A8.045,8.045,0,0,0,18.973,97.8a.412.412,0,0,0,.33-.756,7.215,7.215,0,0,1-2.376-1.678l-.4-.434a3.353,3.353,0,0,0-4.909,0l-.4.434a7.185,7.185,0,0,1-3.933,2.157l-1.973.372v-.847l1.825-.336A6.353,6.353,0,0,0,10.608,94.8l.4-.434a4.178,4.178,0,0,1,6.116,0l.4.434a6.353,6.353,0,0,0,3.477,1.907l1.825.336v.9l-1.923-.419a.412.412,0,0,0-.176.806l2.1.457v4.088a6.48,6.48,0,0,1-1.04,3.53.412.412,0,1,0,.692.448,7.3,7.3,0,0,0,.676-1.323h.508a4.47,4.47,0,1,0,0-8.94Zm0,8.115h-.242a7.344,7.344,0,0,0,.231-1.83v-5.46h.011a3.645,3.645,0,1,1,0,7.291Z" transform="translate(0 -92.213)"/></g></svg>