<svg xmlns="http://www.w3.org/2000/svg" width="12.308" height="10" viewBox="0 0 12.308 10"><defs><style>.a{fill:#fff;}</style></defs><path class="a" d="M12.308,49.184a5.261,5.261,0,0,1-1.454.4,2.509,2.509,0,0,0,1.11-1.395,5.042,5.042,0,0,1-1.6.611A2.523,2.523,0,0,0,6,50.524a2.6,2.6,0,0,0,.058.575,7.142,7.142,0,0,1-5.2-2.639,2.524,2.524,0,0,0,.775,3.372,2.492,2.492,0,0,1-1.14-.311v.028a2.535,2.535,0,0,0,2.022,2.479,2.518,2.518,0,0,1-.662.083,2.231,2.231,0,0,1-.478-.043,2.547,2.547,0,0,0,2.358,1.758A5.07,5.07,0,0,1,.6,56.9a4.727,4.727,0,0,1-.6-.035A7.1,7.1,0,0,0,3.871,58a7.132,7.132,0,0,0,7.182-7.18c0-.112,0-.219-.009-.326A5.034,5.034,0,0,0,12.308,49.184Z" transform="translate(0 -48)"/></svg>