<svg xmlns="http://www.w3.org/2000/svg" width="149.996" height="36" viewBox="0 0 149.996 36"><defs><style>.a{fill:#cc1236;}.b{fill:#fff;}</style></defs><g transform="translate(0.002)"><g transform="translate(-0.002)"><path class="a" d="M16.839,27.408,7.532,10.081A33.465,33.465,0,0,1,.74,7.64c1.642,8.671,5.785,19.916,16.1,24.7,10.313-4.779,14.456-16.025,16.1-24.7a34.4,34.4,0,0,1-6.792,2.441Z" transform="translate(0.358 3.665)"/><path class="b" d="M17.195,22.964,23.986,9.559A32.029,32.029,0,0,0,34.063,6.111,52.64,52.64,0,0,0,34.388,0,16.222,16.222,0,0,1,17.195,0,16.215,16.215,0,0,1,0,0,52.641,52.641,0,0,0,.327,6.111,32.029,32.029,0,0,0,10.4,9.559Z" transform="translate(0.002)"/></g><g transform="translate(43.385 7.576)"><path class="a" d="M40.98,8.8,36.1,20.77H34.2L29.32,8.8h1.716a.675.675,0,0,1,.429.133.756.756,0,0,1,.222.311l3.033,7.709c.089.3.178.577.252.858s.133.547.207.829c.059-.281.133-.547.207-.829s.163-.562.266-.858l3.078-7.709a.629.629,0,0,1,.237-.311.569.569,0,0,1,.385-.118H40.98Z" transform="translate(-29.32 -3.355)"/><path class="a" d="M41.688,6.754a1.489,1.489,0,0,1-.118.577,1.794,1.794,0,0,1-.326.473,1.413,1.413,0,0,1-.488.326,1.624,1.624,0,0,1-.592.118A1.464,1.464,0,0,1,39.114,7.8a1.794,1.794,0,0,1-.326-.473,1.489,1.489,0,0,1-.118-.577,1.624,1.624,0,0,1,.118-.592,1.486,1.486,0,0,1,.326-.488,1.464,1.464,0,0,1,1.051-.444,1.624,1.624,0,0,1,.592.118,1.761,1.761,0,0,1,.488.326,1.413,1.413,0,0,1,.326.488A1.624,1.624,0,0,1,41.688,6.754Zm-.444,3.758v11.97h-2.1V10.512Z" transform="translate(-24.835 -5.067)"/><path class="a" d="M45.138,11.269a5.568,5.568,0,0,1,1.391-1.924,3.064,3.064,0,0,1,2.027-.7,2.949,2.949,0,0,1,.725.089,1.973,1.973,0,0,1,.621.266l-.148,1.568a.339.339,0,0,1-.355.3,3,3,0,0,1-.488-.074,3.528,3.528,0,0,0-.725-.074,2.988,2.988,0,0,0-1.006.163,2.473,2.473,0,0,0-.8.488,3.113,3.113,0,0,0-.621.8,7.566,7.566,0,0,0-.5,1.095v7.561H43.14V8.872h1.2a.671.671,0,0,1,.473.133.775.775,0,0,1,.178.444Z" transform="translate(-22.691 -3.427)"/><path class="a" d="M54.3,8.67a6.081,6.081,0,0,1,2.367.444,5.123,5.123,0,0,1,1.79,1.243A5.379,5.379,0,0,1,59.593,12.3a7.654,7.654,0,0,1,.4,2.545,7.744,7.744,0,0,1-.4,2.56,5.6,5.6,0,0,1-1.139,1.938,5.028,5.028,0,0,1-1.79,1.228A6.308,6.308,0,0,1,54.3,21a6.386,6.386,0,0,1-2.382-.429,4.957,4.957,0,0,1-1.805-1.228A5.379,5.379,0,0,1,48.97,17.4a7.682,7.682,0,0,1-.4-2.56,7.654,7.654,0,0,1,.4-2.545,5.6,5.6,0,0,1,1.139-1.938,5.182,5.182,0,0,1,1.805-1.243A6.052,6.052,0,0,1,54.3,8.67Zm0,10.683a3.083,3.083,0,0,0,2.649-1.184,5.55,5.55,0,0,0,.873-3.314,5.6,5.6,0,0,0-.873-3.329,3.055,3.055,0,0,0-2.649-1.2,3.662,3.662,0,0,0-1.568.311,2.957,2.957,0,0,0-1.11.888,3.95,3.95,0,0,0-.666,1.42,7.514,7.514,0,0,0-.222,1.909,5.416,5.416,0,0,0,.888,3.314A3.084,3.084,0,0,0,54.3,19.353Z" transform="translate(-20.087 -3.417)"/><path class="b" d="M58.49,20.828V8.858h1.258a.532.532,0,0,1,.562.444l.148,1.228A5.764,5.764,0,0,1,61.952,9.2a3.545,3.545,0,0,1,1.909-.518,2.782,2.782,0,0,1,1.953.681,3.729,3.729,0,0,1,1.08,1.82,4.186,4.186,0,0,1,.666-1.125,3.852,3.852,0,0,1,.917-.784,3.621,3.621,0,0,1,1.08-.444,5.162,5.162,0,0,1,1.169-.148,4.576,4.576,0,0,1,1.687.3,3.3,3.3,0,0,1,1.258.888,3.882,3.882,0,0,1,.784,1.42,6.462,6.462,0,0,1,.266,1.938v7.62H72.606v-7.62a3.211,3.211,0,0,0-.621-2.131,2.2,2.2,0,0,0-1.776-.725,2.8,2.8,0,0,0-.991.178,2.343,2.343,0,0,0-.829.533,2.466,2.466,0,0,0-.562.888,3.527,3.527,0,0,0-.207,1.243v7.62H65.5v-7.62a3.346,3.346,0,0,0-.577-2.145,2.046,2.046,0,0,0-1.687-.71,2.579,2.579,0,0,0-1.435.414,4.868,4.868,0,0,0-1.213,1.139v8.922h-2.1Z" transform="translate(-15.328 -3.412)"/><path class="b" d="M72.007,10.559a7.087,7.087,0,0,1,2.145-1.435A6.72,6.72,0,0,1,76.7,8.65a4.6,4.6,0,0,1,1.79.326,3.83,3.83,0,0,1,1.317.917,3.88,3.88,0,0,1,.8,1.435,6.071,6.071,0,0,1,.266,1.85v7.665h-.932a.865.865,0,0,1-.473-.1.783.783,0,0,1-.266-.4L78.961,19.2a10.123,10.123,0,0,1-.917.769,5.15,5.15,0,0,1-.947.562,5.845,5.845,0,0,1-1.051.355,5.374,5.374,0,0,1-1.243.118,4.3,4.3,0,0,1-1.317-.192,2.878,2.878,0,0,1-1.065-.592,2.736,2.736,0,0,1-.725-.991,3.453,3.453,0,0,1-.266-1.406,2.672,2.672,0,0,1,.385-1.361,3.458,3.458,0,0,1,1.258-1.169,7.933,7.933,0,0,1,2.279-.829A16.822,16.822,0,0,1,78.8,14.1v-.932a3.249,3.249,0,0,0-.607-2.116,2.181,2.181,0,0,0-1.761-.71,3.663,3.663,0,0,0-1.3.192,5.3,5.3,0,0,0-.917.444q-.377.244-.666.444a.947.947,0,0,1-.547.192.614.614,0,0,1-.37-.118.97.97,0,0,1-.266-.281Zm6.792,4.9a15.55,15.55,0,0,0-2.471.237,7.165,7.165,0,0,0-1.672.473,2.263,2.263,0,0,0-.932.7,1.5,1.5,0,0,0-.3.9,1.951,1.951,0,0,0,.148.814,1.591,1.591,0,0,0,.414.562,1.781,1.781,0,0,0,.621.326,2.614,2.614,0,0,0,.769.1,4.394,4.394,0,0,0,1.021-.118,3.647,3.647,0,0,0,.873-.326,6.388,6.388,0,0,0,.784-.5,5.153,5.153,0,0,0,.725-.681V15.456Z" transform="translate(-9.122 -3.427)"/><path class="b" d="M87.622,10.835a.459.459,0,0,1-.444.266.8.8,0,0,1-.4-.133c-.148-.089-.34-.178-.547-.3a3.8,3.8,0,0,0-.769-.3,3.737,3.737,0,0,0-1.065-.133,3.215,3.215,0,0,0-.962.133,2.385,2.385,0,0,0-.725.37,1.594,1.594,0,0,0-.459.547,1.49,1.49,0,0,0-.163.681,1.132,1.132,0,0,0,.266.769,2.236,2.236,0,0,0,.71.533,6.91,6.91,0,0,0,.991.4c.37.118.755.237,1.139.37s.769.281,1.139.429a4.4,4.4,0,0,1,.991.592,2.715,2.715,0,0,1,.71.873,2.639,2.639,0,0,1,.266,1.228,3.941,3.941,0,0,1-.3,1.524,3.228,3.228,0,0,1-.873,1.213,4.414,4.414,0,0,1-1.42.814,5.561,5.561,0,0,1-1.938.3,5.823,5.823,0,0,1-2.264-.414A5.583,5.583,0,0,1,79.78,19.55l.5-.8a.685.685,0,0,1,.222-.237.563.563,0,0,1,.326-.089.782.782,0,0,1,.444.163c.163.1.355.237.577.37a4.909,4.909,0,0,0,.829.37,3.976,3.976,0,0,0,1.2.163,3.385,3.385,0,0,0,1.08-.163,2.265,2.265,0,0,0,.769-.429,1.7,1.7,0,0,0,.459-.621,1.856,1.856,0,0,0,.148-.755,1.294,1.294,0,0,0-.266-.829,2.3,2.3,0,0,0-.71-.562,6.477,6.477,0,0,0-1.006-.4c-.37-.118-.755-.237-1.139-.355s-.769-.266-1.139-.429a4.548,4.548,0,0,1-1.006-.607,2.676,2.676,0,0,1-.71-.9,2.919,2.919,0,0,1-.266-1.3,3.1,3.1,0,0,1,.281-1.317,3.168,3.168,0,0,1,.829-1.11,4.2,4.2,0,0,1,1.332-.769,5.256,5.256,0,0,1,1.805-.281,5.619,5.619,0,0,1,2.116.37,5.237,5.237,0,0,1,1.628,1.021Z" transform="translate(-5.117 -3.422)"/><path class="b" d="M89.8,5.12V15.374h.547a1.034,1.034,0,0,0,.4-.059,1.022,1.022,0,0,0,.34-.266l3.788-4.054a1.17,1.17,0,0,1,.355-.311.915.915,0,0,1,.488-.118h1.909l-4.409,4.691a2.652,2.652,0,0,1-.681.621,2.037,2.037,0,0,1,.385.326,3.1,3.1,0,0,1,.326.414l4.676,5.9H96.04a1.175,1.175,0,0,1-.473-.089.789.789,0,0,1-.34-.326L91.29,17.194a1.016,1.016,0,0,0-.355-.326,1.573,1.573,0,0,0-.533-.074H89.8v5.726H87.68V5.12Z" transform="translate(-1.327 -5.12)"/><path class="b" d="M103.452,10.835a.459.459,0,0,1-.444.266.8.8,0,0,1-.4-.133c-.148-.089-.34-.178-.547-.3a3.8,3.8,0,0,0-.769-.3,3.737,3.737,0,0,0-1.065-.133,3.215,3.215,0,0,0-.962.133,2.385,2.385,0,0,0-.725.37,1.594,1.594,0,0,0-.459.547,1.49,1.49,0,0,0-.163.681,1.132,1.132,0,0,0,.266.769,2.236,2.236,0,0,0,.71.533,6.91,6.91,0,0,0,.991.4c.37.118.755.237,1.139.37s.769.281,1.139.429a4.4,4.4,0,0,1,.991.592,2.715,2.715,0,0,1,.71.873,2.639,2.639,0,0,1,.266,1.228,3.941,3.941,0,0,1-.3,1.524,3.228,3.228,0,0,1-.873,1.213,4.415,4.415,0,0,1-1.42.814,5.561,5.561,0,0,1-1.938.3,5.823,5.823,0,0,1-2.264-.414A5.583,5.583,0,0,1,95.61,19.55l.5-.8a.685.685,0,0,1,.222-.237.563.563,0,0,1,.326-.089.782.782,0,0,1,.444.163c.163.1.355.237.577.37a4.909,4.909,0,0,0,.829.37,3.976,3.976,0,0,0,1.2.163,3.385,3.385,0,0,0,1.08-.163,2.265,2.265,0,0,0,.769-.429,1.7,1.7,0,0,0,.459-.621,1.856,1.856,0,0,0,.148-.755,1.294,1.294,0,0,0-.266-.829,2.3,2.3,0,0,0-.71-.562,6.477,6.477,0,0,0-1.006-.4c-.37-.118-.755-.237-1.139-.355s-.769-.266-1.139-.429a4.548,4.548,0,0,1-1.006-.607,2.676,2.676,0,0,1-.71-.9,2.919,2.919,0,0,1-.266-1.3A3.1,3.1,0,0,1,96.2,10.82a3.168,3.168,0,0,1,.829-1.11,4.2,4.2,0,0,1,1.332-.769,5.255,5.255,0,0,1,1.805-.281,5.619,5.619,0,0,1,2.116.37,5.237,5.237,0,0,1,1.628,1.021Z" transform="translate(2.476 -3.422)"/></g></g></svg>