<svg xmlns="http://www.w3.org/2000/svg" width="14.282" height="10" viewBox="0 0 14.282 10"><defs><style>.a{fill:#fff;}</style></defs><path class="a" d="M13.988-4.517a1.789,1.789,0,0,0-1.259-1.259,41.805,41.805,0,0,0-5.588-.306,43.434,43.434,0,0,0-5.588.294A1.826,1.826,0,0,0,.294-4.517,18.854,18.854,0,0,0,0-1.082,18.784,18.784,0,0,0,.294,2.353,1.79,1.79,0,0,0,1.553,3.612a41.881,41.881,0,0,0,5.588.306,43.434,43.434,0,0,0,5.588-.294,1.789,1.789,0,0,0,1.259-1.259,18.86,18.86,0,0,0,.294-3.435A17.9,17.9,0,0,0,13.988-4.517ZM5.718,1.059V-3.223L9.435-1.082Zm0,0" transform="translate(0 6.082)"/></svg>